<svg width="32" height="32" viewBox="0 0 32 32" fill="none" xmlns="http://www.w3.org/2000/svg">
<path d="M25.5738 2.00037C27.4665 2.97087 29.0921 5.51765 29.0106 8.9735C28.7632 13.2316 25.6952 16.9014 22.3571 20.2825C22.1702 16.1591 21.2792 13.5313 19.888 9.83609C18.5746 6.11227 22.4146 2.11955 25.5738 2.00037Z" fill="url(#paint0_linear_1_13510)"/>
<path d="M17.5204 16.8196C17.0206 17.814 16.3159 18.9111 15.336 20.1377C13.631 22.3002 11.9117 25.8465 12.4406 30.004C20.0805 29.1561 22.0207 22.9688 21.8829 20.2924C21.8779 20.2327 21.8727 20.1728 21.8671 20.1127C21.8668 20.1123 21.8664 20.112 21.8661 20.1116C21.8719 20.1717 21.8776 20.2322 21.8829 20.2924C20.6805 18.7342 19.244 17.6598 17.5204 16.8196Z" fill="url(#paint1_linear_1_13510)"/>
<path d="M18.4472 10.3226C20.3637 13.3171 21.5708 16.748 21.8828 20.2921C20.6803 18.7337 19.2437 17.6595 17.5198 16.8193C18.911 14.0515 18.7156 12.0794 18.4472 10.3226Z" fill="url(#paint2_linear_1_13510)"/>
<path d="M17.7252 9.26429C14.3431 4.63796 8.48464 2.41751 3.04118 4.58512C2.79127 7.83772 4.17363 12.6745 9.77919 14.2139C10.3967 14.3979 10.9658 14.5634 11.5016 14.7192C13.0141 15.1591 14.2613 15.5218 15.5838 16.0053C16.2666 16.2549 16.9112 16.5225 17.5198 16.8192C18.911 14.0515 18.7157 12.0794 18.4472 10.3226C18.4472 10.3226 17.8569 9.44436 17.7252 9.26429Z" fill="url(#paint3_linear_1_13510)"/>
<defs>
<linearGradient id="paint0_linear_1_13510" x1="24.3185" y1="2.00037" x2="24.3185" y2="20.2825" gradientUnits="userSpaceOnUse">
<stop stop-color="#73B723"/>
<stop offset="1" stop-color="#D8EE61"/>
</linearGradient>
<linearGradient id="paint1_linear_1_13510" x1="20.4441" y1="20.1992" x2="11.3663" y2="26.9439" gradientUnits="userSpaceOnUse">
<stop stop-color="#98C9EA"/>
<stop offset="0.68865" stop-color="#026FB2"/>
<stop offset="1" stop-color="#086EB6"/>
</linearGradient>
<linearGradient id="paint2_linear_1_13510" x1="18.8706" y1="13.4125" x2="22.711" y2="14.9409" gradientUnits="userSpaceOnUse">
<stop stop-color="#D4C883"/>
<stop offset="1" stop-color="#A1D1A7"/>
</linearGradient>
<linearGradient id="paint3_linear_1_13510" x1="3.01355" y1="4.58269" x2="14.7744" y2="15.0705" gradientUnits="userSpaceOnUse">
<stop stop-color="#D73721"/>
<stop offset="1" stop-color="#F7D768"/>
</linearGradient>
</defs>
</svg>
