<svg width="300" height="85" viewBox="0 0 300 85" fill="none" xmlns="http://www.w3.org/2000/svg">
<g clip-path="url(#clip0_1186_234)">
<mask id="mask0_1186_234" style="mask-type:luminance" maskUnits="userSpaceOnUse" x="16" y="3" width="268" height="78">
<path d="M284 3H16V81H284V3Z" fill="white"/>
</mask>
<g mask="url(#mask0_1186_234)">
<path d="M98.5521 51.8413C97.7806 52.0342 96.8163 52.2272 95.8518 52.2272C93.923 52.2272 93.1515 51.0694 93.1515 49.1397V40.4561H98.5521C99.9022 40.4561 101.252 39.4913 101.252 37.9475C101.252 36.4038 100.095 35.4389 98.5521 35.4389H93.1515V32.5444C93.1515 30.8076 91.8014 29.6498 90.2584 29.6498C88.7153 29.6498 87.3651 31.0007 87.3651 32.5444V49.3326C87.3651 54.1569 89.6797 57.6304 95.0803 57.6304C96.6233 57.6304 98.745 57.4373 100.288 56.6654C101.638 56.0866 102.024 55.1217 102.024 54.1569C102.024 52.8061 100.674 51.4554 98.5521 51.8413ZM117.84 34.667C117.068 34.4741 115.525 34.2811 114.175 34.2811C109.353 34.2811 106.653 37.1757 106.653 41.6139V54.7357C106.653 56.2795 108.003 57.6304 109.546 57.6304C111.089 57.6304 112.439 56.2795 112.439 54.7357V42.7717C112.439 40.842 113.211 40.0701 114.561 40.0701C115.911 40.0701 116.683 40.4561 117.84 40.4561C119.576 40.4561 120.54 38.9123 120.54 37.7545C120.347 36.2107 119.576 35.246 117.84 34.667ZM133.849 34.2811C128.448 34.2811 124.591 37.7545 124.012 43.3507C124.012 44.7014 123.819 47.017 124.012 48.7538C124.398 54.1569 128.255 57.8232 134.042 57.8232C136.742 57.8232 139.249 57.2444 140.792 56.2795C141.95 55.5076 142.143 54.7357 142.143 53.964C142.143 52.4201 140.792 50.8764 138.478 51.6482C137.128 52.2272 135.585 52.6132 134.042 52.6132C131.341 52.6132 129.22 51.2623 129.22 48.5607V47.9819H140.214C142.143 47.9819 143.107 46.8241 143.107 45.0873V44.1225C143.3 38.1404 139.442 34.2811 133.849 34.2811ZM137.514 44.1225H129.413C129.413 41.2279 130.763 39.2982 133.849 39.2982C136.549 39.2982 138.092 41.035 137.899 43.5436C137.899 43.9295 137.899 44.1225 137.514 44.1225ZM156.994 34.2811C151.594 34.2811 147.736 37.7545 147.158 43.3507C147.158 44.7014 146.965 47.017 147.158 48.7538C147.543 54.1569 151.401 57.8232 157.187 57.8232C159.888 57.8232 162.395 57.2444 163.938 56.2795C165.095 55.5076 165.288 54.7357 165.288 53.964C165.288 52.4201 163.938 50.8764 161.623 51.6482C160.273 52.2272 158.73 52.6132 157.187 52.6132C154.487 52.6132 152.365 51.2623 152.365 48.5607V47.9819H163.359C165.288 47.9819 166.253 46.8241 166.253 45.0873V44.1225C166.445 38.1404 162.588 34.2811 156.994 34.2811ZM160.659 44.1225H152.558C152.558 41.2279 153.908 39.2982 156.994 39.2982C159.695 39.2982 161.238 41.035 161.045 43.5436C161.045 43.9295 161.045 44.1225 160.659 44.1225ZM254.398 43.9295L251.312 43.1576C249.384 42.7717 248.804 42.1929 248.804 41.2279C248.804 40.2632 249.769 39.4913 251.89 39.4913C253.048 39.4913 254.398 39.8772 255.555 40.4561C256.906 41.2279 258.449 41.035 259.221 40.0701C260.185 39.1054 260.185 37.3686 259.027 36.2107C257.484 35.0529 254.785 34.2811 252.084 34.2811C247.07 34.2811 243.404 36.7897 243.404 41.421C243.404 45.0873 246.105 47.017 249.576 47.9819C251.312 48.3679 251.119 48.3679 252.662 48.7538C254.398 49.1397 255.17 49.9116 255.17 50.6835C255.17 51.8413 254.205 52.6132 251.89 52.6132C249.962 52.6132 248.226 52.0342 246.876 51.2623C245.525 50.2975 243.984 50.6835 243.212 51.8413C242.44 52.9991 242.632 54.5429 243.79 55.3147C245.333 56.6654 247.841 57.8232 251.89 57.8232C256.906 57.8232 260.764 55.1217 260.764 50.4904C260.764 47.017 258.641 44.8944 254.398 43.9295ZM281.208 47.9819C283.137 47.9819 284.101 46.8241 284.101 45.0873V44.1225C284.101 38.1404 280.245 34.2811 274.651 34.2811C269.25 34.2811 265.393 37.7545 264.814 43.3507C264.814 44.7014 264.621 47.017 264.814 48.7538C265.199 54.1569 269.057 57.8232 274.842 57.8232C277.544 57.8232 280.051 57.2444 281.594 56.2795C282.751 55.5076 282.944 54.7357 282.944 53.964C282.944 52.4201 281.594 50.8764 279.28 51.6482C277.929 52.2272 276.386 52.6132 274.842 52.6132C272.143 52.6132 270.022 51.2623 270.022 48.5607V47.9819H281.208ZM274.651 39.2982C277.35 39.2982 278.893 41.035 278.7 43.5436C278.7 43.9295 278.508 44.1225 278.315 44.1225H270.215C270.215 41.2279 271.758 39.2982 274.651 39.2982ZM204.056 34.2811C198.271 34.2811 194.027 37.9475 193.448 42.9647C193.255 44.7014 193.255 47.4031 193.448 49.1397C193.835 54.1569 198.271 57.8232 204.056 57.8232C209.844 57.8232 214.086 54.1569 214.473 49.1397C214.664 47.4031 214.664 44.8944 214.473 43.1576C214.086 37.9475 209.844 34.2811 204.056 34.2811ZM208.685 48.1748C208.494 50.6835 206.757 52.2272 204.056 52.2272C201.357 52.2272 199.621 50.4904 199.427 48.1748C199.427 47.0172 199.427 45.0873 199.427 43.9295C199.621 41.421 201.357 39.8772 204.056 39.8772C206.757 39.8772 208.494 41.6139 208.685 43.9295C208.879 45.0873 208.879 47.0172 208.685 48.1748ZM181.104 34.2811C178.983 34.2811 176.668 35.0529 175.897 36.0179V29.8429C175.897 28.1061 174.739 26.9482 173.196 26.9482C171.653 26.9482 170.496 28.2991 170.496 29.8429V54.7357C170.496 56.2795 171.846 57.6304 173.389 57.6304C174.932 57.6304 176.089 56.2795 176.089 54.7357V41.8069C177.054 40.842 178.596 40.0701 180.526 40.0701C182.841 40.0701 184.19 41.421 184.19 44.1225V54.7357C184.19 56.4725 185.347 57.8232 186.89 57.8232C188.626 57.8232 189.784 56.4725 189.784 54.7357V43.7366C189.591 37.5616 186.505 34.2811 181.104 34.2811ZM235.11 34.4741C233.567 34.4741 232.217 35.8248 232.217 37.3686V51.0694C231.253 51.6482 229.903 52.2272 228.167 52.2272C225.852 52.2272 224.116 50.8765 224.116 48.1748V37.3686C224.116 35.6319 222.766 34.2811 221.223 34.2811C219.487 34.2811 218.524 35.6319 218.524 37.3686V48.3679C218.524 54.3498 221.995 57.6304 227.973 57.6304C232.411 57.6304 235.495 56.0866 236.847 55.1217C237.618 54.7357 237.81 54.1569 237.81 53.192V37.3686C237.81 35.8248 236.653 34.4741 235.11 34.4741Z" fill="#3E474F"/>
<path d="M66.1485 22.5102C64.0269 21.3524 60.7479 23.282 58.8191 26.7555L55.1543 32.9305C53.8042 35.4392 53.9972 38.5267 55.733 41.0352L55.926 41.2282C57.6618 43.5438 59.7836 45.8595 60.5549 46.6313C60.9408 47.0173 61.3264 47.5961 61.5194 48.368C62.0981 50.4907 60.9408 52.8063 58.6261 53.3852C56.5045 53.9642 54.19 52.8063 53.6113 50.4907C53.4185 49.9119 53.4185 49.3329 53.4185 48.947C53.6113 47.9822 53.2257 46.6313 51.8755 45.0876C50.5254 43.7369 48.0179 46.4385 47.0534 49.14V49.3329C46.2821 52.0345 45.7033 54.5431 45.8961 54.736C45.8961 54.9291 46.0891 54.9291 46.0891 55.122C47.2464 57.4376 46.4748 60.1392 44.1603 61.297C41.8458 62.4548 39.1455 61.6829 37.9882 59.3673C36.8309 57.0517 37.6024 54.3501 39.917 53.1923C40.1099 53.1923 40.1099 52.9994 40.3027 52.9994C40.4957 52.9994 40.8813 51.8414 41.46 50.2977C41.8458 48.947 42.0386 48.368 42.2315 47.7892C42.4245 47.0173 42.8102 45.0876 42.6173 44.3157C42.4245 43.351 41.46 43.351 40.4957 43.9298C39.917 44.3157 38.7597 45.2806 38.3739 45.6664C37.4096 46.4383 36.6381 47.5961 36.2524 48.561C36.0594 48.947 35.6736 49.526 35.2879 49.9119C33.5519 51.2626 31.0445 51.0697 29.5015 49.3329C28.1514 47.5961 28.3442 45.0876 30.0802 43.5438C30.6588 43.1579 31.2374 42.772 31.8161 42.772C32.7805 42.5789 36.2524 40.4563 38.3739 38.9126C38.7597 38.7195 39.3383 38.1407 39.5312 37.9477C40.1099 37.1758 39.5312 36.597 38.9525 36.597C37.2167 36.7899 35.2879 36.9829 34.9021 37.5619C34.7093 37.7548 34.5164 38.1407 34.1306 38.3338C32.5876 39.4916 30.273 39.1055 29.1158 37.5619C27.9585 36.018 28.3442 33.7025 29.8873 32.5445C30.4659 31.9657 31.4303 31.7727 32.0089 31.7727C33.3591 31.7727 36.8309 32.5445 39.5312 31.9657L40.3027 31.7727C43.1958 31.1938 46.6678 28.6852 48.0179 26.1767C48.0179 26.1767 49.3681 23.861 50.911 20.9664C52.647 18.072 52.4542 14.7915 50.7182 13.8267L47.4392 11.897C45.7033 10.9321 43.1958 10.9321 41.46 11.897L19.0861 24.6329C17.3502 25.5977 16 27.9133 16 29.843V54.5431C16 56.4728 17.3502 58.7885 19.0861 59.7532L41.46 72.4892C43.1958 73.4539 45.8961 73.4539 47.4392 72.4892L69.8131 59.7532C71.5491 58.7885 72.8992 56.4728 72.8992 54.5431V29.843C72.8992 27.9133 71.5491 25.5977 69.8131 24.6329C69.8131 24.6329 68.2702 23.668 66.1485 22.5102Z" fill="#5FCF80"/>
</g>
</g>
<defs>
<clipPath id="clip0_1186_234">
<rect width="268" height="78" fill="white" transform="translate(16 3)"/>
</clipPath>
</defs>
</svg>
