<svg width="300" height="85" viewBox="0 0 300 85" fill="none" xmlns="http://www.w3.org/2000/svg">
<path d="M95.2632 29.1157H106.458C112.659 29.1157 115.878 31.6691 115.878 36.4633V36.7022C115.967 38.1072 115.55 39.4972 114.704 40.6197C113.858 41.7423 112.639 42.5228 111.269 42.8192C112.91 42.9641 114.428 43.7536 115.493 45.0157C116.558 46.2778 117.084 47.9111 116.957 49.5605V49.7259C116.957 54.961 113.537 57.7165 106.97 57.7165H95.2632V29.1157ZM105.415 40.8536C108.525 40.8536 109.75 39.7332 109.75 37.1798V37.0145C109.75 34.6264 108.397 33.5427 105.379 33.5427H101.556V40.8903L105.415 40.8536ZM105.964 53.2161C109.147 53.2161 110.592 51.7648 110.592 49.1749V49.0095C110.592 46.3643 109.147 45.0233 105.653 45.0233H101.556V53.2345L105.964 53.2161Z" fill="#1D2D35"/>
<path d="M118.641 51.8933C118.641 47.0071 123.086 45.1702 129.47 45.1702H131.811V44.3436C131.811 41.8638 131.061 40.5045 128.427 40.5045C128.001 40.4536 127.568 40.491 127.157 40.6142C126.746 40.7374 126.363 40.9439 126.035 41.221C125.706 41.498 125.436 41.8398 125.244 42.225C125.051 42.6105 124.939 43.0314 124.915 43.4618H119.427C119.793 38.5022 123.689 36.2979 128.793 36.2979C133.896 36.2979 137.5 38.3736 137.5 44.0498V57.6796H131.884V55.163C131.18 56.1602 130.229 56.9568 129.127 57.4752C128.024 57.9936 126.806 58.2159 125.592 58.1205C121.824 58.1205 118.641 56.2836 118.641 51.8933ZM131.811 50.3687V48.5317H129.579C126.232 48.5317 124.293 49.2665 124.293 51.4892C124.293 53.0137 125.208 54.0242 127.311 54.0242C129.854 54.0976 131.811 52.6832 131.811 50.3687Z" fill="#1D2D35"/>
<path d="M139.932 51.1218H145.31C145.548 52.9587 146.463 54.0976 148.969 54.0976C151.2 54.0976 152.243 53.2526 152.243 51.8015C152.243 50.3504 150.999 49.7624 148.017 49.3399C142.53 48.4949 140.335 46.8969 140.335 42.819C140.335 38.741 144.323 36.2979 148.566 36.2979C153.194 36.2979 156.651 37.9879 157.163 42.7823H151.877C151.566 41.0555 150.597 40.2656 148.621 40.2656C146.646 40.2656 145.676 41.1473 145.676 42.4148C145.676 43.6823 146.664 44.2517 149.682 44.6926C154.895 45.4458 157.767 46.7684 157.767 51.2505C157.767 55.7324 154.511 58.1205 149.005 58.1205C143.499 58.1205 140.134 55.6406 139.932 51.1218Z" fill="#1D2D35"/>
<path d="M159.249 47.4848V47.1724C159.179 45.7369 159.408 44.3025 159.919 42.9603C160.431 41.6179 161.214 40.3968 162.22 39.3746C163.226 38.3523 164.433 37.551 165.763 37.0214C167.094 36.4916 168.519 36.2455 169.95 36.2979C175.327 36.2979 180.101 39.4574 180.101 46.9337V48.5318H165.157C165.303 52.0036 167.188 54.0425 170.315 54.0425C172.986 54.0425 174.303 52.8853 174.669 51.1218H180.156C179.48 55.6406 175.894 58.1571 170.206 58.1571C163.822 58.1204 159.249 54.1712 159.249 47.4848ZM174.486 44.9681C174.303 41.8086 172.693 40.3759 169.95 40.3759C168.714 40.37 167.525 40.8452 166.631 41.7016C165.737 42.5579 165.209 43.7287 165.157 44.9681H174.486Z" fill="#1D2D35"/>
<path d="M181.619 47.4847V47.1724C181.55 45.7336 181.779 44.2962 182.294 42.9512C182.807 41.6063 183.593 40.3835 184.603 39.3606C185.614 38.3376 186.825 37.5371 188.16 37.0098C189.495 36.4825 190.924 36.2401 192.357 36.2979C197.186 36.2979 201.631 38.4104 202.162 44.4171H196.675C196.638 43.9015 196.498 43.3985 196.265 42.9382C196.031 42.4776 195.707 42.0691 195.312 41.7366C194.919 41.4043 194.463 41.1549 193.971 41.0031C193.479 40.8513 192.961 40.8005 192.448 40.8534C189.467 40.8534 187.474 43.0945 187.474 47.099V47.4113C187.474 51.6178 189.302 53.767 192.578 53.767C193.134 53.7992 193.692 53.7197 194.218 53.5333C194.744 53.3468 195.228 53.057 195.642 52.681C196.055 52.305 196.39 51.85 196.628 51.3427C196.864 50.8352 196.998 50.2856 197.021 49.7258H202.235C201.924 54.6854 198.338 58.1204 192.285 58.1204C186.229 58.1204 181.619 54.318 181.619 47.4847Z" fill="#1D2D35"/>
<path d="M203.57 51.8933C203.57 47.0071 208.015 45.1702 214.381 45.1702H216.74V44.3436C216.74 41.8636 215.973 40.5043 213.357 40.5043C212.928 40.4481 212.491 40.4814 212.075 40.6022C211.659 40.7229 211.274 40.9285 210.941 41.206C210.607 41.4836 210.335 41.8272 210.14 42.2153C209.945 42.6035 209.832 43.0278 209.808 43.4618H204.321C204.686 38.5022 208.583 36.2979 213.667 36.2979C218.753 36.2979 222.393 38.3736 222.393 44.0496V57.6794H216.777V55.163C216.074 56.1601 215.122 56.9568 214.02 57.4752C212.916 57.9934 211.7 58.2159 210.484 58.1203C206.827 58.1203 203.57 56.2834 203.57 51.8933ZM216.74 50.3686V48.5317H214.546C211.198 48.5317 209.242 49.2665 209.242 51.4892C209.242 53.0137 210.174 54.024 212.277 54.024C214.857 54.0976 216.815 52.6831 216.815 50.3686H216.74Z" fill="#1D2D35"/>
<path d="M226.454 36.702H232.215V39.8982C232.844 38.7627 233.768 37.8205 234.89 37.1732C236.011 36.5258 237.288 36.1979 238.581 36.2244C239.816 36.1253 241.049 36.4295 242.097 37.0915C243.146 37.7535 243.953 38.7381 244.398 39.8982C245.167 38.7461 246.211 37.8059 247.434 37.164C248.659 36.5221 250.023 36.1991 251.403 36.2244C255.264 36.2244 258.245 38.6676 258.245 44.215V57.6062H252.52V44.9315C252.52 42.2496 251.331 41.0555 249.245 41.0555C248.691 41.0313 248.138 41.1275 247.623 41.3376C247.109 41.5479 246.646 41.8669 246.266 42.2733C245.885 42.6796 245.597 43.1635 245.419 43.6919C245.243 44.2204 245.181 44.781 245.24 45.3356V57.6796H239.495V44.9315C239.495 42.2496 238.27 41.0555 236.239 41.0555C235.684 41.0286 235.128 41.1228 234.611 41.3318C234.095 41.5408 233.629 41.8594 233.247 42.266C232.865 42.6726 232.574 43.1575 232.396 43.6874C232.218 44.2171 232.157 44.7794 232.215 45.3356V57.6796H226.454V36.702Z" fill="#1D2D35"/>
<path d="M262.197 36.7022H267.977V39.9902C268.666 38.8402 269.639 37.8888 270.802 37.2289C271.967 36.569 273.281 36.223 274.616 36.2246C279.72 36.2246 283.764 40.027 283.764 46.9337V47.2644C283.764 54.1711 279.867 58.0471 274.616 58.0471C273.281 58.102 271.958 57.7887 270.786 57.1411C269.616 56.4934 268.644 55.5361 267.977 54.3733V64.8069H262.197V36.7022ZM277.836 46.9888C277.836 42.7456 275.77 40.6698 272.86 40.6698C269.953 40.6698 267.776 42.7823 267.776 46.9888V47.3011C267.776 51.4892 269.77 53.5283 272.915 53.5283C276.063 53.5283 277.836 51.3974 277.836 47.3746V46.9888Z" fill="#1D2D35"/>
<path fill-rule="evenodd" clip-rule="evenodd" d="M52.4966 19.132C36.2651 19.132 27.8003 32.9383 23.0609 46.4325C22.4879 48.0636 20.7067 48.9197 19.0823 48.3443C17.9204 47.9328 17.1535 46.9005 17.0206 45.7491C16.9677 45.2907 17.0153 44.8135 17.1784 44.3489C21.9874 30.6568 31.8146 12.8682 52.4966 12.8682C63.307 12.8682 71.0447 20.0501 76.0491 28.6782C81.0666 37.329 83.7417 48.0407 84.3445 56.6895C84.3879 57.311 84.2456 57.9316 83.9358 58.4716C81.0376 63.5236 76.2161 66.816 70.7202 68.8324C65.2378 70.8439 58.8873 71.6656 52.5217 71.6677C47.1134 71.7524 41.7504 70.6656 36.798 68.4809C31.8378 66.2929 27.4064 63.0551 23.8068 58.989C23.0411 58.124 22.8128 56.9054 23.2132 55.8201L23.2155 55.8137L23.22 55.8017L23.2352 55.7609L23.2905 55.6147C23.3381 55.4894 23.4071 55.31 23.496 55.084C23.6738 54.6322 23.9318 53.9926 24.2579 53.2271C24.9074 51.703 25.8405 49.649 26.9613 47.5752C28.0674 45.5286 29.4275 43.3284 30.9571 41.595C32.3515 40.0147 34.5189 38.0895 37.293 38.0707L37.3142 38.0705C39.2744 38.0705 40.8847 38.9719 42.0438 39.8384C43.2121 40.7118 44.2732 41.8217 45.1235 42.7252C45.2209 42.8289 45.3158 42.9299 45.408 43.0281C46.1999 43.8713 46.8055 44.5161 47.3809 44.9989C47.4454 45.0532 47.5048 45.1009 47.559 45.1432C47.7463 44.9511 47.9694 44.6996 48.2264 44.3796C49.1405 43.2416 50.1672 41.6385 51.1608 39.9224C52.1412 38.2288 53.0337 36.5227 53.6843 35.2323C54.0085 34.5893 54.2701 34.0545 54.4497 33.6825C54.5394 33.4966 54.6086 33.3517 54.6546 33.2545L54.7062 33.1455L54.7184 33.1195L54.721 33.114C55.4522 31.5479 57.3094 30.8728 58.8688 31.6069C60.4284 32.3409 61.1001 34.2058 60.3691 35.772L60.3624 35.7864L60.3462 35.8209L60.2862 35.9478C60.2343 36.0573 60.1589 36.2154 60.0624 36.4153C59.8695 36.8147 59.5918 37.3822 59.2493 38.0618C58.5662 39.4164 57.6146 41.2373 56.5532 43.0707C55.505 44.8812 54.292 46.8051 53.0814 48.3123C52.4811 49.0596 51.8005 49.8073 51.0645 50.395C50.414 50.9147 49.2665 51.6822 47.7955 51.6822C45.8504 51.6822 44.3178 50.5915 43.3811 49.8055C42.4983 49.0646 41.6163 48.1229 40.8755 47.3321C40.7777 47.2276 40.6824 47.1258 40.5899 47.0275C39.7115 46.0941 38.9937 45.3671 38.3191 44.8629C37.7279 44.4209 37.426 44.3482 37.3394 44.3365C37.3394 44.3365 37.3331 44.339 37.3276 44.3409C37.2323 44.3747 36.6595 44.5775 35.6256 45.7491C34.5537 46.964 33.4569 48.6878 32.4435 50.563C31.4447 52.411 30.5955 54.2765 29.9925 55.6915C29.9148 55.8739 29.8414 56.0481 29.7726 56.2133C32.5174 58.9599 35.7489 61.1766 39.3066 62.746C43.4448 64.5714 47.9265 65.4781 52.4458 65.4043L52.4966 65.4038C58.3965 65.4038 63.9812 64.6362 68.5797 62.949C72.8101 61.3968 76.0374 59.1344 78.0435 56.1311C77.3637 48.4343 74.9222 39.1811 70.6591 31.8309C66.1973 24.1381 60.1428 19.132 52.4966 19.132ZM47.0464 45.5883C47.0464 45.5883 47.06 45.5779 47.0862 45.5644C47.0593 45.5826 47.0464 45.5883 47.0464 45.5883Z" fill="#1D2D35"/>
</svg>
