<svg width="300" height="85" viewBox="0 0 300 85" fill="none" xmlns="http://www.w3.org/2000/svg">
<g clip-path="url(#clip0_1186_233)">
<path d="M94.6981 27.5884C97.2541 27.5884 99.4647 28.0001 101.399 28.8923C103.333 29.7158 104.784 30.9511 105.82 32.5296C106.857 34.108 107.34 35.9609 107.34 38.0884C107.34 40.2158 106.857 42.0688 105.82 43.6472C104.784 45.2256 103.333 46.3923 101.399 47.2845C99.5338 48.108 97.3232 48.5198 94.6981 48.5198H88.8261V56.4119H82.1251V27.5884H94.6981ZM94.3527 43.0296C96.356 43.0296 97.8758 42.6178 98.9812 41.7256C100.017 40.8335 100.57 39.5982 100.57 38.0198C100.57 36.3727 100.017 35.1374 98.9812 34.3139C97.9449 33.4217 96.4251 33.0099 94.3527 33.0099H88.8261V43.0296H94.3527Z" fill="#180B3D"/>
<path d="M115.768 37.1962C116.528 36.0982 117.564 35.3433 118.877 34.7942C120.189 34.2452 121.709 33.9707 123.436 33.9707V39.8727C122.745 39.804 122.262 39.804 121.986 39.804C120.12 39.804 118.67 40.3531 117.633 41.3825C116.597 42.4119 116.044 43.9217 116.044 45.9805V56.4119H109.551V34.2452H115.699V37.1962H115.768Z" fill="#180B3D"/>
<path d="M135.595 56.7548C133.246 56.7548 131.104 56.2744 129.239 55.3136C127.374 54.3528 125.923 52.9803 124.887 51.2646C123.851 49.5489 123.298 47.5587 123.298 45.3626C123.298 43.1666 123.851 41.1764 124.887 39.4607C125.923 37.745 127.374 36.3724 129.239 35.4117C131.104 34.4509 133.246 33.9019 135.595 33.9019C137.944 33.9019 140.016 34.3822 141.881 35.4117C143.746 36.3724 145.197 37.745 146.233 39.4607C147.27 41.1764 147.822 43.1666 147.822 45.3626C147.822 47.5587 147.27 49.5489 146.233 51.2646C145.197 52.9803 143.746 54.3528 141.881 55.3136C140.016 56.2744 137.944 56.7548 135.595 56.7548ZM135.595 51.4705C137.253 51.4705 138.634 50.9215 139.671 49.8234C140.776 48.7254 141.259 47.2156 141.259 45.3626C141.259 43.5097 140.707 41.9999 139.671 40.9019C138.634 39.8038 137.253 39.1862 135.595 39.1862C133.937 39.1862 132.555 39.7352 131.519 40.9019C130.414 41.9999 129.93 43.5097 129.93 45.3626C129.93 47.2156 130.483 48.7254 131.519 49.8234C132.555 50.9215 133.937 51.4705 135.595 51.4705Z" fill="#180B3D"/>
<path d="M177.113 27.5884V56.4119H171.587L157.148 38.9119V56.4119H150.516V27.5884H156.043L170.481 45.0884V27.5884H177.113Z" fill="#180B3D"/>
<path d="M190.446 33.9019C193.9 33.9019 196.525 34.7254 198.39 36.3724C200.256 38.0195 201.154 40.4215 201.154 43.7156V56.4117H195.074V53.6666C193.831 55.7254 191.62 56.7548 188.304 56.7548C186.577 56.7548 185.127 56.4803 183.814 55.8626C182.571 55.3136 181.603 54.4901 180.982 53.4607C180.291 52.4313 180.015 51.2646 180.015 50.0293C180.015 47.9705 180.774 46.3234 182.363 45.1568C183.952 43.9901 186.37 43.3724 189.617 43.3724H194.729C194.729 41.9999 194.315 40.9019 193.416 40.147C192.587 39.3921 191.275 38.9803 189.548 38.9803C188.373 38.9803 187.199 39.1862 186.025 39.5293C184.919 39.8724 183.952 40.3528 183.123 41.0391L180.774 36.5783C182.018 35.7548 183.469 35.0685 185.127 34.5881C186.854 34.1764 188.65 33.9019 190.446 33.9019ZM189.962 52.4313C191.068 52.4313 192.035 52.1568 192.933 51.6764C193.762 51.1273 194.384 50.3724 194.729 49.4117V47.147H190.308C187.683 47.147 186.301 48.0391 186.301 49.7548C186.301 50.5783 186.646 51.2646 187.268 51.745C187.89 52.1568 188.788 52.4313 189.962 52.4313Z" fill="#180B3D"/>
<path d="M219.322 55.3135C218.7 55.7939 217.871 56.137 216.973 56.4116C216.075 56.6174 215.108 56.7547 214.072 56.7547C211.447 56.7547 209.374 56.0684 207.924 54.7645C206.473 53.3919 205.782 51.4704 205.782 48.8625V39.6665H202.328V34.7253H205.782V29.3037H212.276V34.7253H217.802V39.6665H212.276V48.6567C212.276 49.6174 212.483 50.3037 212.967 50.8527C213.45 51.3331 214.141 51.6076 215.039 51.6076C216.075 51.6076 216.904 51.3331 217.664 50.7841L219.322 55.3135Z" fill="#180B3D"/>
<path d="M243.363 34.2451V56.4118H237.214V53.8039C236.386 54.7647 235.349 55.5196 234.175 56C233 56.4804 231.688 56.7549 230.306 56.7549C227.405 56.7549 225.056 55.9314 223.329 54.2157C221.602 52.5686 220.773 50.0294 220.773 46.7353V34.2451H227.267V45.8432C227.267 49.4118 228.786 51.1961 231.757 51.1961C233.277 51.1961 234.52 50.7157 235.487 49.6863C236.455 48.6569 236.869 47.1471 236.869 45.2255V34.2451H243.363Z" fill="#180B3D"/>
<path d="M253.449 37.1962C254.209 36.0982 255.245 35.3433 256.558 34.7942C257.87 34.2452 259.39 33.9707 261.117 33.9707V39.8727C260.426 39.804 259.943 39.804 259.666 39.804C257.801 39.804 256.35 40.3531 255.314 41.3825C254.278 42.4119 253.725 43.9217 253.725 45.9805V56.4119H247.231V34.2452H253.38V37.1962H253.449Z" fill="#180B3D"/>
<path d="M284.467 45.4313C284.467 45.4999 284.398 46.1175 284.329 47.147H267.472C267.749 48.5195 268.509 49.6175 269.614 50.3724C270.719 51.196 272.17 51.5391 273.828 51.5391C275.002 51.5391 276.039 51.4019 276.868 51.0587C277.766 50.7156 278.595 50.1666 279.424 49.4117L282.878 53.1175C280.805 55.5195 277.697 56.6862 273.69 56.6862C271.203 56.6862 268.923 56.2058 266.989 55.245C265.055 54.2842 263.535 52.9117 262.499 51.196C261.462 49.4803 260.91 47.4901 260.91 45.294C260.91 43.0979 261.393 41.1764 262.429 39.4607C263.466 37.6764 264.916 36.3724 266.713 35.4117C268.509 34.4509 270.581 33.9019 272.792 33.9019C275.002 33.9019 276.937 34.3822 278.733 35.2744C280.529 36.2352 281.911 37.5391 282.878 39.3234C283.983 41.1077 284.467 43.0979 284.467 45.4313ZM272.93 38.7744C271.479 38.7744 270.236 39.1862 269.269 40.0097C268.301 40.8332 267.68 41.9313 267.472 43.3724H278.457C278.249 41.9999 277.628 40.8332 276.66 40.0097C275.555 39.1862 274.381 38.7744 272.93 38.7744Z" fill="#180B3D"/>
<path fill-rule="evenodd" clip-rule="evenodd" d="M45.3043 11.5294C44.3372 10.9804 43.0937 10.9804 42.1265 11.5294C35.1492 15.5785 30.3826 23.0589 30.3826 31.7059C30.3826 32.9412 30.4517 34.1079 30.6589 35.3432C25.8232 33.6961 20.642 34.3138 16.3589 36.7157C15.3918 37.2647 14.77 38.2941 14.77 39.4608C14.77 45.4314 17.8787 51.2647 23.4744 54.4216C26.2377 56 29.2082 56.7549 32.1787 56.7549C31.7642 57.9902 31.4879 59.3628 31.4879 60.804C31.4879 67.5294 36.9454 72.951 43.7154 72.951C50.4855 72.951 55.943 67.5294 55.943 60.804C55.943 59.3628 55.6666 57.9902 55.2521 56.7549C58.0154 56.6863 60.8478 55.9314 63.4038 54.4216C68.9995 51.1961 72.1082 45.4314 72.1082 39.4608C72.1082 38.3628 71.4864 37.2647 70.5193 36.7157C66.4434 34.3824 61.4695 33.7647 56.772 35.1373C56.9101 34.0392 57.0483 32.8726 57.0483 31.7059C57.0483 23.0589 52.3507 15.5785 45.3043 11.5294ZM36.8072 31.7059C36.8072 26.0785 39.5014 21.1373 43.7845 18.049C47.9985 21.1373 50.7618 26.0785 50.7618 31.7059C50.7618 37.3334 48.0676 42.2745 43.7845 45.3628C39.5014 42.2745 36.8072 37.3334 36.8072 31.7059ZM56.2884 42.2059C59.2589 40.4902 62.6439 40.353 65.6145 41.3824C65.0618 44.4706 63.1966 47.2843 60.2261 49C57.2555 50.7157 53.8705 50.853 50.9 49.8236C51.4526 46.6667 53.3178 43.853 56.2884 42.2059ZM21.4019 41.3824C24.3724 40.2843 27.7575 40.4902 30.728 42.2059C33.6985 43.9216 35.5637 46.7353 36.1164 49.8236C33.1459 50.9216 29.7608 50.7157 26.7903 49C23.8198 47.2843 21.9546 44.4706 21.4019 41.3824ZM37.9125 60.804C37.9125 57.5785 40.5377 54.9706 43.7845 54.9706C47.0314 54.9706 49.6565 57.5785 49.6565 60.804C49.6565 64.0294 47.0314 66.6373 43.7845 66.6373C40.5377 66.6373 37.9125 64.0294 37.9125 60.804Z" fill="#FFCC00"/>
</g>
<defs>
<clipPath id="clip0_1186_233">
<rect width="269" height="62" fill="white" transform="translate(15 11)"/>
</clipPath>
</defs>
</svg>
