<svg width="300" height="85" viewBox="0 0 300 85" fill="none" xmlns="http://www.w3.org/2000/svg">
<g clip-path="url(#clip0_1186_315)">
<path d="M23.4414 47.9048L52.1341 76.5587C37.4817 74.0853 25.9182 62.5374 23.4414 47.9048Z" fill="#5E6AD2"/>
<path d="M23 40.1264L59.9236 77.0002C62.1196 76.883 64.2619 76.5642 66.3321 76.0618L23.9397 33.7266C23.4366 35.7941 23.1173 37.9334 23 40.1264Z" fill="#5E6AD2"/>
<path d="M25.7776 28.223L71.8427 74.226C73.5206 73.5069 75.1309 72.6608 76.6615 71.7L28.307 23.4106C27.3448 24.9392 26.4977 26.5474 25.7776 28.223Z" fill="#5E6AD2"/>
<path d="M31.4277 19.1896C37.8597 11.726 47.3881 7 58.022 7C77.3921 7 93.0945 22.6813 93.0945 42.0252C93.0945 52.6448 88.3622 62.1604 80.8885 68.5836L31.4277 19.1896Z" fill="#5E6AD2"/>
<path d="M111 62.9996H136.698V56.011H119.488V22.9088H111V62.9996ZM142.162 62.9996H150.513V32.9315H142.162V62.9996ZM146.357 29.3687C148.788 29.3687 150.885 27.5286 150.885 25.1403C150.885 22.7717 148.788 20.9316 146.357 20.9316C143.946 20.9316 141.849 22.7717 141.849 25.1403C141.849 27.5286 143.946 29.3687 146.357 29.3687ZM165.553 45.6164C165.572 41.7406 167.885 39.4697 171.257 39.4697C174.609 39.4697 176.628 41.6621 176.608 45.3425V62.9996H184.959V43.8546C184.959 36.8467 180.842 32.54 174.57 32.54C170.1 32.54 166.866 34.7325 165.513 38.2366H165.16V32.9315H157.202V62.9996H165.553V45.6164ZM205.34 63.5871C212.809 63.5871 217.807 59.9653 218.982 54.3863L211.279 53.8773C210.436 56.1678 208.26 57.3619 205.497 57.3619C201.322 57.3619 198.675 54.6016 198.675 50.1189V50.0994H219.18V47.8089C219.18 37.5905 212.986 32.54 205.026 32.54C196.167 32.54 190.423 38.8238 190.423 48.1027C190.423 57.636 196.087 63.5871 205.34 63.5871ZM198.675 44.9313C198.832 41.5056 201.459 38.7651 205.163 38.7651C208.771 38.7651 211.279 41.349 211.318 44.9313H198.675ZM233.331 63.5675C237.781 63.5675 240.664 61.6295 242.134 58.83H242.368V62.9996H250.287V42.7193C250.287 35.5546 244.152 32.54 237.644 32.54C230.234 32.54 225.549 35.9853 224.393 41.4665L232.116 42.0928C232.684 40.0962 234.468 38.628 237.467 38.628C240.348 38.628 241.918 40.0374 241.937 42.5627C241.957 44.5399 239.878 44.8335 234.645 45.3425C228.687 45.8905 223.334 47.8874 223.334 54.6016C223.334 60.5527 227.587 63.5675 233.331 63.5675ZM235.724 57.8121C233.154 57.8121 231.313 56.618 231.313 54.3275C231.313 51.9787 233.254 50.8235 236.194 50.4125C238.017 50.1581 240.996 49.7274 241.996 49.0619V52.2528C241.996 55.4044 239.389 57.8121 235.724 57.8121ZM256.765 62.9996H265.118V45.9885C265.136 42.3082 267.801 39.783 271.173 39.783C272.31 39.783 273.232 40.0962 274.016 40.4876L276.525 33.597C275.427 32.9315 274.016 32.5008 272.409 32.5008C269.017 32.5008 266.272 34.4584 265.175 38.1778H264.861V32.9315H256.765V62.9996Z" fill="#040406"/>
</g>
<defs>
<clipPath id="clip0_1186_315">
<rect width="254" height="70" fill="white" transform="translate(23 7)"/>
</clipPath>
</defs>
</svg>
