<svg width="300" height="85" viewBox="0 0 300 85" fill="none" xmlns="http://www.w3.org/2000/svg">
<path d="M215.532 28C218.612 28 221 25.7714 221 22.9715C221 20.2286 218.612 18 215.532 18C212.515 18 210.001 20.2286 210.001 22.9715C209.938 25.7714 212.515 28 215.532 28Z" fill="#2C3242"/>
<path d="M172 30.7002H179.516V35.3676C181.41 32.567 185.598 30 190.533 30C199.885 30 207 38.1097 207 48.0864C207 58.0048 199.885 66.1727 190.533 66.1727C185.598 66.1727 181.467 63.6057 179.516 60.8051V80H172V30.7002ZM189.156 36.9429C183.074 36.9429 178.885 41.7852 178.885 48.0864C178.885 54.3292 183.074 59.23 189.156 59.23C195.18 59.23 199.369 54.3875 199.369 48.0864C199.369 41.8437 195.18 36.9429 189.156 36.9429Z" fill="#2C3242"/>
<path d="M225 30.6909H232.52V35.3536C234.587 31.8997 238.489 30 242.91 30C250.833 30 256 35.6414 256 44.3339V65H248.479V45.6004C248.479 40.1891 245.724 36.908 241.361 36.908C236.366 36.908 232.52 40.8224 232.52 48.1332V65H225V30.6909Z" fill="#2C3242"/>
<path d="M114.911 30.6538C110.491 30.6538 106.587 32.518 104.521 35.9074V18H97V65H104.521V48.4483C104.521 41.2739 108.367 37.4326 113.361 37.4326C117.724 37.4326 120.48 40.6526 120.48 45.9627V65H128V44.72C127.943 36.1898 122.833 30.6538 114.911 30.6538Z" fill="#2C3242"/>
<path d="M219 31H212V65H219V31Z" fill="#2C3242"/>
<path d="M150 66C139.846 66 132 58.0453 132 48C132 37.9547 139.846 30 150 30C160.154 30 168 37.9547 168 48C168 58.0453 160.154 66 150 66ZM150 58.9163C156.058 58.9163 160.327 54.1548 160.327 48C160.327 41.8452 156.058 37.0839 150 37.0839C143.885 37.0839 139.616 41.8452 139.616 48C139.616 54.1548 143.885 58.9163 150 58.9163Z" fill="#2C3242"/>
<path d="M66.1595 25.3278C66.0982 27.7782 64.3748 31.2697 61.4821 31.2697C59.6971 31.2697 58.2201 29.7996 58.2201 28.0231V27.9619C58.1585 25.083 56.8663 22.5715 54.8351 20.795C53.2965 19.5086 51.3886 18.6512 49.296 18.4061C51.0809 16.5684 53.6043 15.4658 56.3737 15.4658C59.8819 15.4658 63.0823 17.4872 64.9287 20.4275C65.7904 21.8976 66.2211 23.6739 66.1595 25.3278Z" fill="#175FFF"/>
<path d="M54.7126 25.5728C56.2512 27.5329 57.1745 31.2694 54.959 33.1071C53.5432 34.271 51.5122 34.0873 50.3429 32.7396C48.4349 30.5958 45.7885 29.4931 43.142 29.4318C41.111 29.3705 39.08 29.9832 37.3567 31.147C37.5413 28.6355 38.7107 26.124 40.8648 24.3477C43.6344 22.0813 47.5117 21.4074 50.8352 22.755C52.3739 23.3064 53.7279 24.2864 54.7126 25.5728Z" fill="#175FFF"/>
<path d="M46.0959 33.0463C48.4962 33.5364 51.6966 35.8642 51.2042 38.6818C50.8965 40.4583 49.1732 41.6221 47.3884 41.3159H47.3269C44.4957 40.8871 41.7262 41.7447 39.6952 43.3984C38.1565 44.6235 36.9256 46.4 36.3717 48.4214C34.8946 46.3387 34.2176 43.7048 34.6484 40.9485C35.3254 37.4567 37.8488 34.5165 41.2954 33.3527C42.834 32.8626 44.5573 32.7401 46.0959 33.0463Z" fill="#175FFF"/>
<path d="M44.3111 44.3172C46.4652 43.1534 50.4042 42.9082 51.8197 45.3585C52.7429 46.89 52.189 48.9112 50.6503 49.8301C48.1885 51.3002 46.6499 53.6891 46.096 56.323C45.7267 58.2832 45.9113 60.3659 46.8345 62.2649C44.3727 61.6523 42.0955 60.0598 40.7415 57.6709C38.9566 54.5467 39.0182 50.6877 40.8645 47.625C41.7262 46.2161 42.8956 45.0522 44.3111 44.3172Z" fill="#175FFF"/>
<path d="M50.219 54.0568C51.1422 51.7904 53.9733 49.0951 56.6198 50.0752C58.3432 50.6877 59.2047 52.5867 58.5891 54.2407C57.6659 56.9358 58.0354 59.7534 59.3279 62.0814C60.3125 63.8577 61.7896 65.2665 63.6975 66.1852C61.3588 67.2879 58.6507 67.5331 56.0659 66.5529C52.6808 65.3276 50.219 62.3262 49.6651 58.7734C49.4804 57.181 49.6651 55.5269 50.219 54.0568Z" fill="#175FFF"/>
<path d="M61.0515 57.7319C60.2514 55.4041 60.6824 51.5449 63.3902 50.5649C65.1134 49.9526 66.9598 50.8102 67.5755 52.5252C68.6216 55.1593 70.7141 57.1193 73.2374 58.0996C75.084 58.8343 77.2381 58.957 79.2689 58.4669C78.2228 60.7946 76.2532 62.6935 73.6684 63.6738C70.2834 64.8987 66.4061 64.1637 63.7596 61.7746C62.5287 60.6109 61.5439 59.2631 61.0515 57.7319Z" fill="#175FFF"/>
<path d="M71.7602 53.6279C69.6676 52.3415 67.4521 49.0948 68.9291 46.6449C69.8524 45.1134 71.822 44.5622 73.422 45.4198C75.9453 46.7673 78.7765 46.951 81.3614 46.0934C83.2694 45.4198 84.9926 44.1945 86.2236 42.4795C86.9005 44.9297 86.6543 47.6249 85.2387 50.0137C83.4539 53.1378 80.0074 55.0367 76.4378 54.9143C74.7144 54.9143 73.0528 54.4855 71.7602 53.6279Z" fill="#175FFF"/>
<path d="M77.2996 43.6425C74.8377 44.0102 71.0834 42.9073 70.5912 40.0899C70.2217 38.3747 71.4525 36.6595 73.2375 36.3531H73.2991C76.1301 35.8019 78.4075 34.0867 79.7613 31.8202C80.8078 30.105 81.2999 28.0837 81.1155 26.001C83.2081 27.4098 84.8081 29.6764 85.2388 32.3715C85.8543 35.8632 84.4389 39.5384 81.6695 41.7435C80.3768 42.7238 78.8382 43.4587 77.2996 43.6425Z" fill="#175FFF"/>
<path d="M75.0838 32.4956C73.422 34.3333 69.8522 35.9258 67.6367 34.0882C66.2211 32.9244 66.0363 30.9029 67.2058 29.494C68.9905 27.2889 69.6675 24.4711 69.2367 21.8372C68.9292 19.8769 68.0059 17.9782 66.5288 16.4467C69.0521 16.2017 71.6986 16.9367 73.8528 18.7131C76.6224 20.9796 77.9149 24.7161 77.1761 28.2076C76.8684 29.8004 76.1299 31.3317 75.0838 32.4956Z" fill="#175FFF"/>
</svg>
