<svg width="300" height="85" viewBox="0 0 300 85" fill="none" xmlns="http://www.w3.org/2000/svg">
<g clip-path="url(#clip0_1186_254)">
<path fill-rule="evenodd" clip-rule="evenodd" d="M219.181 56.8604C225.547 56.8604 230.725 51.7759 230.725 45.5262C230.725 39.2761 225.547 34.1916 219.181 34.1916C212.816 34.1916 207.637 39.2761 207.637 45.5262C207.637 51.7759 212.816 56.8604 219.181 56.8604ZM230.725 17.3579H231.037H236.194V62.2685H230.725V57.7843C227.568 60.6567 223.498 62.2302 219.181 62.2302C209.801 62.2302 202.169 54.7366 202.169 45.5262C202.169 36.315 209.801 28.8218 219.181 28.8218C223.498 28.8218 227.568 30.395 230.725 33.2675V17.3579ZM105.763 56.6626C112.128 56.6626 117.307 51.5781 117.307 45.3282C117.307 39.0785 112.128 33.9939 105.763 33.9939C99.3974 33.9939 94.2189 39.0785 94.2189 45.3282C94.2189 51.5781 99.3974 56.6626 105.763 56.6626ZM94.2189 33.0703C97.3751 30.1978 101.446 28.6242 105.763 28.6242C115.143 28.6242 122.776 36.1176 122.776 45.3282C122.776 54.5388 115.143 62.0322 105.763 62.0322C101.446 62.0322 97.3751 60.4591 94.2189 57.5861V73.4961H88.75V28.5856H94.2189V33.0703ZM133.21 42.7202C134.441 37.6444 139.027 33.9997 144.259 33.9997C149.422 33.9997 153.747 37.5665 154.899 42.7202H133.21ZM144.259 28.5856C135.018 28.5856 127.501 36.141 127.501 45.427C127.501 54.7134 135.018 62.2685 144.259 62.2685C149.433 62.2685 154.182 60.3216 157.29 56.9269L158.905 55.1623L159.113 54.9346L158.887 54.7246L155.376 51.4793L155.15 51.2695L154.94 51.4973L153.326 53.262C151.266 55.5115 147.877 56.8548 144.259 56.8548C139.027 56.8548 134.442 53.21 133.21 48.1339H160.581V45.427C160.581 35.9833 153.411 28.5856 144.259 28.5856ZM268.531 45.4272C268.531 51.7283 263.352 56.8546 256.986 56.8546C250.622 56.8546 245.443 51.7283 245.443 45.4272C245.443 39.1257 250.622 33.9995 256.986 33.9995C263.352 33.9995 268.531 39.1257 268.531 45.4272ZM256.986 28.5856C247.606 28.5856 239.974 36.1406 239.974 45.4272C239.974 54.7134 247.606 62.2685 256.986 62.2685C266.368 62.2685 274 54.7134 274 45.4272C274 36.1406 266.368 28.5856 256.986 28.5856ZM180.902 28.5856C177.102 28.5856 173.481 30.0354 170.632 32.6834V28.5856H165.307V62.2685H170.632V45.0796C170.632 38.9469 175.239 33.9573 180.902 33.9573C186.565 33.9573 191.174 38.9469 191.174 45.0796V62.2685H196.497V45.0796C196.497 35.9848 189.501 28.5856 180.902 28.5856Z" fill="#1A2022"/>
<path fill-rule="evenodd" clip-rule="evenodd" d="M27 49.4368H52.7291V74.6419L78.4584 49.4368V24.2319H52.7291L27 49.4368Z" fill="#FF4876"/>
</g>
<defs>
<clipPath id="clip0_1186_254">
<rect width="247" height="58" fill="white" transform="translate(27 17)"/>
</clipPath>
</defs>
</svg>
